<svg width="65" height="65" viewBox="0 0 65 65" fill="none" xmlns="http://www.w3.org/2000/svg">
<g clip-path="url(#clip0)">
<path d="M51.0256 43.8295L21.245 14.0488C19.9461 12.75 17.8404 12.75 16.5437 14.0488L14.9741 15.6159C13.6753 16.9151 13.6753 19.0208 14.9741 20.3176L44.7548 50.0983C46.054 51.3971 48.1597 51.3971 49.4565 50.0983L51.0236 48.5312C52.3249 47.2344 52.3249 45.1283 51.0256 43.8295V43.8295Z" fill="#F44336"/>
<path d="M44.7547 14.0487L14.9741 43.8294C13.6753 45.1282 13.6753 47.2343 14.9741 48.5311L16.5412 50.0982C17.8404 51.397 19.9461 51.397 21.2429 50.0982L51.0256 20.3196C52.3248 19.0207 52.3248 16.915 51.0256 15.6182L49.4585 14.0511C48.1597 12.7499 46.054 12.7499 44.7547 14.0487V14.0487Z" fill="#F44336"/>
</g>
<circle cx="32.5" cy="32.5" r="27.5" stroke="#F44336" stroke-width="10"/>
<defs>
<clipPath id="clip0">
<rect width="38" height="38" fill="white" transform="translate(14 13)"/>
</clipPath>
</defs>
</svg>
