<svg width="111" height="111" viewBox="0 0 111 111" fill="none" xmlns="http://www.w3.org/2000/svg">
<path class="MoonIcon" d="M94.5024 39.1517V16.199H71.5497L55.3507 0L39.1517 16.199H16.199V39.1517L0 55.3507L16.199 71.5498V94.5024H39.1517L55.3507 110.701L71.5497 94.5024H94.5024V71.5498L110.701 55.3507L94.5024 39.1517ZM55.3507 84.7145C50.9951 84.7145 46.8352 83.7357 43.1158 82.0228C53.1974 77.3736 60.2447 67.1941 60.2447 55.3507C60.2447 43.5073 53.1974 33.3279 43.1158 28.6786C46.8352 26.9657 50.9951 25.9869 55.3507 25.9869C71.5497 25.9869 84.7145 39.1517 84.7145 55.3507C84.7145 71.5498 71.5497 84.7145 55.3507 84.7145Z" fill="#ECEFF4"/>
</svg>
