<svg width="25" height="25" viewBox="0 0 25 25" fill="none" xmlns="http://www.w3.org/2000/svg">
<path d="M24.7631 23.6399L18.3085 17.2884C19.9987 15.452 21.0373 13.0234 21.0373 10.3509C21.0365 4.63387 16.3276 0 10.5184 0C4.7092 0 0.000289917 4.63387 0.000289917 10.3509C0.000289917 16.0678 4.7092 20.7017 10.5184 20.7017C13.0283 20.7017 15.3304 19.8335 17.1387 18.3902L23.6183 24.7667C23.9341 25.0777 24.4466 25.0777 24.7624 24.7667C25.0788 24.4557 25.0788 23.9509 24.7631 23.6399ZM10.5184 19.1092C5.60318 19.1092 1.61865 15.1879 1.61865 10.3509C1.61865 5.51376 5.60318 1.59254 10.5184 1.59254C15.4336 1.59254 19.4181 5.51376 19.4181 10.3509C19.4181 15.1879 15.4336 19.1092 10.5184 19.1092Z" fill="#47525E"/>
</svg>
