<svg width="613" height="613" viewBox="0 0 613 613" fill="none" xmlns="http://www.w3.org/2000/svg">
<g clip-path="url(#clip0)">
<path d="M606.209 578.714L448.198 423.228C489.576 378.272 515 318.817 515 253.393C514.98 113.439 399.704 0 257.493 0C115.282 0 0.0059967 113.439 0.0059967 253.393C0.0059967 393.347 115.282 506.786 257.493 506.786C318.938 506.786 375.294 485.533 419.561 450.2L578.185 606.299C585.914 613.913 598.462 613.913 606.191 606.299C613.938 598.686 613.938 586.328 606.209 578.714ZM257.493 467.8C137.167 467.8 39.624 371.807 39.624 253.393C39.624 134.979 137.167 38.986 257.493 38.986C377.82 38.986 475.362 134.979 475.362 253.393C475.362 371.807 377.82 467.8 257.493 467.8Z" fill="#ECEFF4"/>
</g>
<defs>
<clipPath id="clip0">
<rect width="612.01" height="612.01" fill="white"/>
</clipPath>
</defs>
</svg>
