<svg width="41" height="41" viewBox="0 0 41 41" fill="none" xmlns="http://www.w3.org/2000/svg">
<path d="M34.8368 14.8368V6.54323H26.5432L20.69 0.690002L14.8368 6.54323H6.54323V14.8368L0.690002 20.69L6.54323 26.5432V34.8368H14.8368L20.69 40.69L26.5432 34.8368H34.8368V26.5432L40.69 20.69L34.8368 14.8368ZM20.69 31.3001C14.8368 31.3001 10.0799 26.5432 10.0799 20.69C10.0799 14.8368 14.8368 10.0799 20.69 10.0799C26.5432 10.0799 31.3001 14.8368 31.3001 20.69C31.3001 26.5432 26.5432 31.3001 20.69 31.3001ZM20.69 13.6166C16.782 13.6166 13.6166 16.782 13.6166 20.69C13.6166 24.5981 16.782 27.7634 20.69 27.7634C24.5981 27.7634 27.7634 24.5981 27.7634 20.69C27.7634 16.782 24.5981 13.6166 20.69 13.6166Z" fill="#47525E"/>
</svg>
